<svg width="62" height="54" viewBox="0 0 62 54" fill="none" xmlns="http://www.w3.org/2000/svg">
<path d="M50.9882 26.2378H50.9893H50.9882ZM4.77844 24.2998C4.31579 24.2998 3.88885 24.492 3.57626 24.8413C3.25865 25.1961 3.1065 25.6574 3.1479 26.1399C4.39453 40.5866 14.4441 51.4811 26.5241 51.4811C31.9673 51.4811 37.2748 49.1859 41.4691 45.0184C42.7572 43.7396 43.9376 42.2881 44.9778 40.7039C46.9756 37.6589 48.4079 34.2224 49.235 30.4902C49.4741 29.4106 49.6613 28.3039 49.7914 27.2013C49.8323 26.8593 49.8689 26.5029 49.9003 26.1399C49.9417 25.6574 49.7895 25.1961 49.4719 24.8413C49.1593 24.492 48.7324 24.2998 48.2697 24.2998H4.77844ZM26.5241 53.7164C20.0963 53.7164 13.946 50.8832 9.20621 45.7387C4.53881 40.6727 1.61445 33.7821 0.972024 26.336C0.877549 25.2373 1.23972 24.1423 1.96538 23.3316C2.68612 22.5263 3.71147 22.0645 4.77844 22.0645H48.2697C49.3367 22.0645 50.3621 22.5263 51.0828 23.3316C51.8086 24.1423 52.1706 25.2373 52.0761 26.3357V26.3359C52.0427 26.7243 52.0035 27.1063 51.9598 27.4714C51.821 28.6476 51.6209 29.8303 51.3653 30.9845C50.4785 34.9861 48.9396 38.6755 46.7911 41.9501C45.666 43.6639 44.3873 45.2357 42.9904 46.6225C38.3867 51.1969 32.5387 53.7164 26.5241 53.7164" fill="white"/>
<path d="M51.8671 28.1924C51.7368 29.1301 51.5686 30.0663 51.3654 30.9844C50.4785 34.9861 48.9396 38.6754 46.7911 41.9502C46.1634 42.9063 45.4876 43.8185 44.7703 44.6789C51.2373 44.1953 56.0095 40.5643 57.8739 37.0315C59.2521 34.4197 59.1868 31.8246 57.69 29.7239C56.0403 27.4086 53.1296 27.8587 51.8671 28.1924ZM43.2931 46.9682C42.9207 46.9682 42.548 46.9588 42.1736 46.9398C41.7803 46.9198 41.4278 46.6847 41.2513 46.3244C41.0748 45.9641 41.1016 45.5346 41.3212 45.2001L41.3234 45.1967C41.3659 45.132 41.4148 45.0722 41.4694 45.0179C42.7572 43.7395 43.9376 42.2881 44.9778 40.7039C46.9755 37.6588 48.4079 34.2224 49.2349 30.4903C49.474 29.4105 49.6613 28.304 49.7914 27.2013C49.8401 26.7886 50.1085 26.4378 50.4882 26.2903C50.5472 26.2675 51.9521 25.7294 53.7169 25.6968C56.1748 25.652 58.1594 26.5886 59.4549 28.407C61.4459 31.2008 61.5701 34.7315 59.7958 38.0936C58.4254 40.6905 56.0168 42.9997 53.0138 44.5963C50.0799 46.156 46.7398 46.9682 43.2931 46.9682" fill="white"/>
<path d="M51.2143 31.637C50.4894 34.6394 49.3923 37.4597 47.9414 40.0538C51.4389 39.4951 53.8754 37.5266 54.7667 35.6711C55.1826 34.8054 55.4804 33.5132 54.5376 32.2731C53.7394 31.2221 52.0757 31.4369 51.2143 31.637ZM45.9429 42.445C45.9218 42.445 45.901 42.4449 45.8799 42.4449C45.4773 42.4431 45.1082 42.2149 44.9195 41.851C44.7309 41.487 44.7532 41.0463 44.9775 40.7043C46.9756 37.6589 48.408 34.2224 49.235 30.4903C49.317 30.1201 49.5771 29.8178 49.9256 29.6876C50.0979 29.6233 54.1679 28.1432 56.262 30.9011C57.5199 32.5555 57.6895 34.6536 56.7271 36.6572C55.953 38.2685 54.4918 39.7301 52.6123 40.7727C50.6393 41.8673 48.3344 42.445 45.9429 42.445Z" fill="white"/>
<path d="M26.5422 17.8182C26.2949 17.8182 26.0462 17.7327 25.8417 17.5575C25.3792 17.1614 25.318 16.4565 25.7052 15.9832C27.6995 13.5449 26.0084 10.4869 25.1888 9.28534C24.6306 8.467 24.3006 7.53499 24.2346 6.59023C23.9811 2.96714 26.8218 0.62275 26.9427 0.524843C27.4158 0.141824 28.1027 0.223636 28.477 0.707692C28.8504 1.19052 28.7717 1.89117 28.3017 2.27486C28.2647 2.30582 26.2442 4.01304 26.4134 6.43063C26.4513 6.97337 26.6472 7.51811 26.98 8.00597C27.5639 8.86198 28.3306 10.2178 28.667 11.815C29.1086 13.9112 28.6636 15.8486 27.3803 17.4178C27.1643 17.6819 26.8543 17.8182 26.5422 17.8182Z" fill="white"/>
<path d="M16.618 17.8182C16.3707 17.8182 16.122 17.7327 15.9175 17.5575C15.455 17.1614 15.3938 16.4565 15.781 15.9832C17.7753 13.5449 16.0842 10.4869 15.2646 9.28534C14.7065 8.46711 14.3765 7.5351 14.3104 6.59035C14.0569 2.96714 16.8976 0.62275 17.0185 0.524843C17.4916 0.141824 18.1785 0.223636 18.5528 0.707692C18.9262 1.19052 18.8475 1.89117 18.3775 2.27486C18.3405 2.30582 16.32 4.01304 16.4892 6.43063C16.5271 6.97337 16.723 7.51811 17.0558 8.00597C17.6397 8.86198 18.4064 10.2178 18.7428 11.815C19.1844 13.9112 18.7395 15.8486 17.4561 17.4178C17.2401 17.6819 16.9301 17.8182 16.618 17.8182Z" fill="white"/>
<path d="M36.4663 17.8183C36.219 17.8183 35.9703 17.7328 35.7658 17.5577C35.3033 17.1616 35.2421 16.4565 35.6293 15.9832C37.6235 13.545 35.9326 10.4871 35.1129 9.28546C34.5547 8.46701 34.2247 7.53499 34.1587 6.59024C33.9053 2.96715 36.7459 0.622869 36.8669 0.524851C37.34 0.141943 38.0269 0.223644 38.4011 0.707699C38.7745 1.19064 38.6959 1.89129 38.2259 2.27487C38.1888 2.30583 36.1683 4.01305 36.3375 6.43075C36.3754 6.97349 36.5714 7.51812 36.9042 8.00609C37.4881 8.8621 38.2547 10.2178 38.5912 11.815C39.0328 13.9113 38.5877 15.8488 37.3044 17.418C37.0884 17.6821 36.7784 17.8183 36.4663 17.8183Z" fill="white"/>
<path d="M26.524 50.0281C21.0993 50.0281 15.8804 47.6063 11.8286 43.2087C9.87492 41.088 8.26273 38.6003 7.03696 35.8149C6.76522 35.1973 6.98606 34.4693 7.55182 34.1178C7.71663 34.0154 11.6611 31.6118 18.2025 31.6118C21.0479 31.6118 23.9751 32.0701 26.9026 32.9741C30.9142 34.2128 34.7282 34.8408 38.2386 34.8408C42.1765 34.8408 44.317 34.0241 44.3376 34.0158C45.4317 33.5757 46.495 34.7184 46.0119 35.8152C45.3842 37.2403 44.6397 38.6128 43.7988 39.8944C42.8137 41.3946 41.6974 42.7674 40.4808 43.975C36.4958 47.9349 31.6695 50.0281 26.524 50.0281Z" fill="white"/>
</svg>
